<svg width="903" height="238" viewBox="0 0 903 238" fill="none" xmlns="http://www.w3.org/2000/svg">
<rect width="903" height="238" fill="#26539D"/>
<path d="M145.203 152H112.003L106.003 177H69.2026L106.003 63H153.003L188.203 177H151.203L145.203 152ZM128.403 87.6L116.603 129.8H140.403L129.203 87.6H128.403ZM198.348 63H234.348V177H198.348V63ZM294.593 63C310.193 63 322.927 64.4667 332.793 67.4C342.793 70.3333 350.527 75.8667 355.993 84C361.593 92.1333 364.393 103.8 364.393 119C364.393 135.267 361.46 147.667 355.593 156.2C349.727 164.6 341.86 170.2 331.993 173C322.127 175.667 309.66 177 294.593 177H254.593V63H294.593ZM321.393 149.8C322.993 148.2 324.127 144.067 324.793 137.4C325.46 130.733 325.793 124.6 325.793 119C325.793 111.933 325.26 106.333 324.193 102.2C323.26 97.9333 321.527 94.5333 318.993 92C314.993 87.6 308.127 85.4 298.393 85.4C296.66 85.4 294.06 85.5333 290.593 85.8V152.2C292.86 152.467 296.393 152.6 301.193 152.6C306.127 152.6 310.46 152.4 314.193 152C318.06 151.467 320.46 150.733 321.393 149.8ZM469.775 173.2C464.841 175.333 459.108 176.867 452.575 177.8C446.041 178.733 439.975 179.2 434.375 179.2C416.241 179.2 402.041 174.467 391.775 165C381.508 155.533 376.375 141 376.375 121.4C376.375 101.4 381.775 86.4667 392.575 76.6C403.375 66.6 418.575 61.6 438.175 61.6C447.508 61.6 457.241 62.8667 467.375 65.4C467.375 68.0667 467.108 72.0667 466.575 77.4C466.041 82.6 465.508 86.2667 464.975 88.4H452.375C443.175 88.4 435.908 88.6 430.575 89C425.375 89.2667 422.241 89.8667 421.175 90.8C419.175 92.6667 417.641 96.4667 416.575 102.2C415.508 107.8 414.975 113.2 414.975 118.4C414.975 127.467 416.108 134.467 418.375 139.4C420.641 144.2 423.508 147.4 426.975 149C430.308 150.6 435.841 151.4 443.575 151.4C449.708 151.4 457.708 150.867 467.575 149.8L469.775 173.2ZM601.534 137.765H558.759V180.54H522.769V137.765H479.994V102.07H522.769V59.295H558.759V102.07H601.534V137.765ZM652.002 131V177H618.602V63H652.402L682.602 109C687.135 115.8 690.602 121.533 693.002 126.2H693.602V107V63H726.802V177H692.802L661.802 129L652.802 115.4H652.202L652.002 131ZM745.532 63H828.532V87H781.532V107.8H821.132V129.4H781.532V152.6H828.332V177H745.532V63Z" fill="white"/>
</svg>
